<svg width="96" height="96" viewBox="0 0 96 96" fill="none" xmlns="http://www.w3.org/2000/svg">
  <rect x="8" y="8" width="80" height="80" rx="22" fill="url(#paint0_linear)"/>
  <path d="M34.3 57.8C28.1 57.8 23.6 53.5 23.6 47.8C23.6 42.1 28.1 37.8 34.3 37.8C38 37.8 41 39.2 43 41.7L38.9 45.4C37.8 44 36.4 43.3 34.6 43.3C31.7 43.3 29.8 45.2 29.8 47.8C29.8 50.4 31.7 52.3 34.6 52.3C36.4 52.3 37.8 51.6 38.9 50.2L43 53.9C41 56.4 38 57.8 34.3 57.8Z" fill="white"/>
  <path d="M54.6 57.8C48.8 57.8 45.4 54.6 45.4 49V38.2H51.5V48.8C51.5 51.4 52.6 52.3 54.7 52.3C56.8 52.3 57.9 51.4 57.9 48.8V38.2H63.9V49C63.9 54.6 60.5 57.8 54.6 57.8Z" fill="white"/>
  <defs>
    <linearGradient id="paint0_linear" x1="18" y1="16" x2="82" y2="84" gradientUnits="userSpaceOnUse">
      <stop stop-color="#6D5DF6"/>
      <stop offset="1" stop-color="#2563EB"/>
    </linearGradient>
  </defs>
</svg>
